<svg width="100" height="100" viewBox="0 0 100 100" fill="none" xmlns="http://www.w3.org/2000/svg">
<path d="M0 50.0001C0 56.1161 1.1002 61.9747 3.10996 67.3913L50 71.7391L96.89 67.3913C98.8998 61.9747 100 56.1161 100 50.0001C100 43.884 98.8998 38.0254 96.89 32.6088L50 28.261L3.10996 32.6088C1.1002 38.0254 0 43.884 0 50.0001Z" fill="#D80027"/>
<path d="M96.8901 32.6088C89.8254 13.5689 71.4983 0 50 0C28.5018 0 10.1746 13.5689 3.10999 32.6088H96.8901Z" fill="black"/>
<path d="M3.10999 67.3911C10.1746 86.431 28.5018 99.9999 50 99.9999C71.4983 99.9999 89.8254 86.431 96.8901 67.3911H3.10999Z" fill="#FFC839"/>
</svg>
