<svg width="284" height="308" fill="none" xmlns="http://www.w3.org/2000/svg"><g clip-path="url(#a)" fill="#EAE1E1"><path d="M167.238 126.909h83.203v36.033h-83.203v-36.033ZM167.238 207.985c0 21.75 14.316 39.945 33.282 44.13v37.547h-16.641v18.017h49.922v-18.017H217.16v-37.547c18.965-4.185 33.281-22.38 33.281-44.13v-27.026h-83.203v27.026ZM83.48 198.976h16.641v54.051h-16.64v-54.051Z"/><path d="M147.321 137.932c-4.606 3.167-9.822 5.384-15.412 6.387l6.3 13.643-42.48 22.997h21.033v90.085H66.84v-90.085h21.032l-42.48-22.996 6.301-13.644c-5.59-1.002-10.806-3.22-15.413-6.387a48.102 48.102 0 0 0-2.721 16.002v153.745h116.484V153.934c0-5.635-.969-11.026-2.722-16.002ZM66.84.19h49.922v18.016H66.84V.19ZM91.8 66.211c7.417-5.585 15.979-9.278 24.962-10.704V36.223H66.84v19.285c8.983 1.425 17.545 5.118 24.96 10.703Z"/><path d="M125.082 72.858c-13.594 0-25.685 7.097-33.281 18.048-7.596-10.95-19.687-18.048-33.282-18.048-13.763 0-24.96 12.123-24.96 27.025s11.197 27.026 24.96 27.026h19.819l-10.62 22.996 14.883 8.058 9.2-19.919 9.198 19.919 14.884-8.058-10.619-22.996h19.818c13.763 0 24.961-12.124 24.961-27.026s-11.198-27.025-24.961-27.025ZM50.199 99.883c0-4.967 3.733-9.008 8.32-9.008 10.849 0 20.102 7.53 23.536 18.017H58.519c-4.587 0-8.32-4.042-8.32-9.009Zm74.883 9.009h-23.535c3.433-10.487 12.687-18.017 23.535-18.017 4.588 0 8.32 4.04 8.32 9.008 0 4.967-3.732 9.009-8.32 9.009Z"/></g><defs><clipPath id="a"><path fill="#fff" transform="translate(0 .19)" d="M0 0h284v307.489H0z"/></clipPath></defs></svg>