<svg width="100" height="100" fill="none" xmlns="http://www.w3.org/2000/svg"><path d="M50 100c27.614 0 50-22.386 50-50S77.614 0 50 0 0 22.386 0 50s22.386 50 50 50Z" fill="#F0F0F0"/><path d="M10.336 19.559a49.819 49.819 0 0 0-8.614 17.398h26.012L10.336 19.559ZM98.278 36.957a49.822 49.822 0 0 0-8.614-17.398L72.267 36.957h26.01ZM1.722 63.044a49.824 49.824 0 0 0 8.614 17.397l17.397-17.397H1.723ZM80.441 10.336a49.82 49.82 0 0 0-17.398-8.614v26.011l17.398-17.397ZM19.559 89.664c5.11 3.927 11 6.889 17.398 8.614V72.267L19.559 89.664ZM36.956 1.722a49.822 49.822 0 0 0-17.397 8.614l17.397 17.397V1.723ZM63.044 98.278a49.823 49.823 0 0 0 17.397-8.614L63.044 72.267v26.01ZM72.267 63.044 89.664 80.44c3.927-5.11 6.89-11 8.614-17.397H72.267Z" fill="#0052B4"/><path d="M99.577 43.478H56.522V.423a50.5 50.5 0 0 0-13.044 0v43.055H.423a50.5 50.5 0 0 0 0 13.044h43.055v43.055a50.501 50.501 0 0 0 13.044 0V56.522h43.055a50.501 50.501 0 0 0 0-13.044Z" fill="#D80027"/><path d="m63.044 63.044 22.311 22.311a50.132 50.132 0 0 0 2.94-3.21L69.191 63.044h-6.148ZM36.956 63.044 14.644 85.355a50.132 50.132 0 0 0 3.21 2.94l19.102-19.103v-6.148ZM36.956 36.957 14.645 14.643a50.132 50.132 0 0 0-2.94 3.21l19.103 19.103h6.148ZM63.044 36.957l22.312-22.312a50.07 50.07 0 0 0-3.21-2.94L63.043 30.809v6.149Z" fill="#D80027"/></svg>