<svg width="100" height="100" viewBox="0 0 100 100" fill="none" xmlns="http://www.w3.org/2000/svg">
<path d="M50 100C77.6142 100 100 77.6142 100 50C100 22.3858 77.6142 0 50 0C22.3858 0 0 22.3858 0 50C0 77.6142 22.3858 100 50 100Z" fill="#F0F0F0"/>
<path d="M10.3359 19.5588C6.40841 24.6688 3.44689 30.5584 1.72247 36.9567H27.7338L10.3359 19.5588Z" fill="#0052B4"/>
<path d="M98.2775 36.9567C96.5531 30.5587 93.5914 24.669 89.6641 19.5591L72.2666 36.9567H98.2775Z" fill="#0052B4"/>
<path d="M1.72247 63.0437C3.44708 69.4417 6.40861 75.3314 10.3359 80.4412L27.7332 63.0437H1.72247Z" fill="#0052B4"/>
<path d="M80.441 10.3361C75.3311 6.40855 69.4416 3.44702 63.0434 1.72241V27.7335L80.441 10.3361Z" fill="#0052B4"/>
<path d="M19.559 89.6639C24.669 93.5914 30.5586 96.5529 36.9567 98.2775V72.2666L19.559 89.6639Z" fill="#0052B4"/>
<path d="M36.9565 1.72241C30.5584 3.44702 24.6688 6.40854 19.559 10.3359L36.9565 27.7333V1.72241Z" fill="#0052B4"/>
<path d="M63.0436 98.2775C69.4416 96.5529 75.3313 93.5914 80.441 89.6641L63.0436 72.2666V98.2775Z" fill="#0052B4"/>
<path d="M72.2666 63.0437L89.6641 80.4414C93.5914 75.3316 96.5531 69.4417 98.2775 63.0437H72.2666Z" fill="#0052B4"/>
<path d="M99.5768 43.4783H56.5221H56.5219V0.423242C54.3869 0.145313 52.2104 0 50 0C47.7893 0 45.6131 0.145313 43.4783 0.423242V43.4779V43.4781H0.423242C0.145313 45.6131 0 47.7896 0 50C0 52.2107 0.145313 54.3869 0.423242 56.5217H43.4779H43.4781V99.5768C45.6131 99.8547 47.7893 100 50 100C52.2104 100 54.3869 99.8549 56.5217 99.5768V56.5221V56.5219H99.5768C99.8547 54.3869 100 52.2107 100 50C100 47.7896 99.8547 45.6131 99.5768 43.4783Z" fill="#D80027"/>
<path d="M63.0436 63.0437L85.3553 85.3554C86.3815 84.3296 87.3604 83.2571 88.2944 82.1454L69.1924 63.0435H63.0436V63.0437Z" fill="#D80027"/>
<path d="M36.9564 63.0437H36.956L14.6445 85.3552C15.6703 86.3814 16.7428 87.3603 17.8545 88.2943L36.9564 69.1919V63.0437Z" fill="#D80027"/>
<path d="M36.9565 36.9568V36.9565L14.6448 14.6445C13.6186 15.6703 12.6397 16.7428 11.7057 17.8545L30.8078 36.9566H36.9565V36.9568Z" fill="#D80027"/>
<path d="M63.0436 36.9568L85.3555 14.6447C84.3297 13.6185 83.2572 12.6396 82.1455 11.7058L63.0436 30.808V36.9568V36.9568Z" fill="#D80027"/>
</svg>
